<svg width="26" height="24" viewBox="0 0 26 24" fill="none" xmlns="http://www.w3.org/2000/svg">
<path d="M19.9375 10.875V4.1875C19.9375 3.52083 19.8854 3 19.7812 2.625C19.6771 2.22917 19.5104 1.92708 19.2812 1.71875C19.0521 1.51042 18.7292 1.38542 18.3125 1.34375C17.9167 1.28125 17.4271 1.23958 16.8438 1.21875V0.40625C17.2812 0.427083 17.8854 0.447917 18.6562 0.46875C19.4271 0.46875 20.2188 0.46875 21.0312 0.46875C21.8646 0.46875 22.6458 0.46875 23.375 0.46875C24.1042 0.447917 24.6667 0.427083 25.0625 0.40625V1.21875C24.4583 1.23958 23.9583 1.28125 23.5625 1.34375C23.1667 1.40625 22.8542 1.54167 22.625 1.75C22.375 1.95833 22.2083 2.26042 22.125 2.65625C22.0417 3.03125 22 3.54167 22 4.1875V19.5938C22 20.3021 22.0417 20.875 22.125 21.3125C22.2083 21.75 22.3646 22.0938 22.5938 22.3438C22.8229 22.5938 23.1354 22.7604 23.5312 22.8438C23.9271 22.9271 24.4375 22.9688 25.0625 22.9688V23.75C24.6667 23.7292 24.0938 23.7188 23.3438 23.7188C22.6146 23.6979 21.8438 23.6875 21.0312 23.6875C20.2188 23.6875 19.4271 23.6979 18.6562 23.7188C17.8854 23.7188 17.2812 23.7292 16.8438 23.75V22.9688C17.4896 22.9688 18.0104 22.9167 18.4062 22.8125C18.8021 22.7083 19.1146 22.5312 19.3438 22.2812C19.5729 22.0312 19.7292 21.6979 19.8125 21.2812C19.8958 20.8438 19.9375 20.2812 19.9375 19.5938V12.1875H5.15625V19.5938C5.15625 20.2812 5.1875 20.8438 5.25 21.2812C5.3125 21.7188 5.45833 22.0625 5.6875 22.3125C5.89583 22.5625 6.19792 22.7396 6.59375 22.8438C6.98958 22.9271 7.52083 22.9688 8.1875 22.9688V23.75C7.77083 23.75 7.1875 23.75 6.4375 23.75C5.70833 23.7292 4.9375 23.7188 4.125 23.7188C3.29167 23.7188 2.5 23.7188 1.75 23.7188C1 23.7188 0.416667 23.7292 0 23.75V22.9688C1.25 22.9688 2.07292 22.75 2.46875 22.3125C2.86458 21.8542 3.0625 20.9479 3.0625 19.5938V4.28125C3.0625 3.61458 3.01042 3.08333 2.90625 2.6875C2.82292 2.29167 2.66667 1.98958 2.4375 1.78125C2.20833 1.55208 1.89583 1.40625 1.5 1.34375C1.10417 1.28125 0.604167 1.23958 0 1.21875V0.40625C0.395833 0.447917 0.958333 0.479167 1.6875 0.5C2.4375 0.5 3.22917 0.5 4.0625 0.5C4.875 0.5 5.65625 0.5 6.40625 0.5C7.17708 0.479167 7.77083 0.447917 8.1875 0.40625V1.21875C7.58333 1.23958 7.08333 1.29167 6.6875 1.375C6.29167 1.4375 5.97917 1.57292 5.75 1.78125C5.52083 2.01042 5.36458 2.32292 5.28125 2.71875C5.19792 3.11458 5.15625 3.63542 5.15625 4.28125V10.875H19.9375Z" fill="white"/>
</svg>
