<svg width="226" height="59" viewBox="0 0 226 59" fill="none" xmlns="http://www.w3.org/2000/svg">
<path d="M45.9512 34.0703C45.9512 34.9102 46.0879 35.4473 46.3613 35.6816C46.6348 35.916 47.2012 36.0332 48.0605 36.0332V36.7656C47.7871 36.7656 47.5332 36.7656 47.2988 36.7656C47.0645 36.7656 46.8301 36.7559 46.5957 36.7363C46.3613 36.7363 46.1172 36.7363 45.8633 36.7363C45.6289 36.7168 45.375 36.707 45.1016 36.707C44.8086 36.707 44.5352 36.7168 44.2812 36.7363C44.0469 36.7363 43.8125 36.7363 43.5781 36.7363C43.3242 36.7363 43.0703 36.7461 42.8164 36.7656C42.582 36.7656 42.3281 36.7656 42.0547 36.7656V36.0332C42.9141 36.0332 43.4805 35.916 43.7539 35.6816C44.0273 35.4473 44.1641 34.9102 44.1641 34.0703V26.8926C44.1641 26.3652 44.1445 25.9453 44.1055 25.6328C44.0664 25.3203 43.9883 25.0762 43.8711 24.9004C43.7539 24.7246 43.5781 24.6074 43.3438 24.5488C43.1094 24.4902 42.7871 24.4609 42.377 24.4609V23.8457C43.002 23.748 43.5684 23.6016 44.0762 23.4062C44.6035 23.2109 45.0918 22.9082 45.541 22.498H46.0684C46.0098 23.0254 45.9707 23.5918 45.9512 24.1973C45.9512 24.7832 45.9512 25.3105 45.9512 25.7793V34.0703ZM43.5488 16.082C43.5488 15.6914 43.6855 15.3496 43.959 15.0566C44.252 14.7637 44.5938 14.6172 44.9844 14.6172C45.375 14.6172 45.7168 14.7637 46.0098 15.0566C46.3027 15.3496 46.4492 15.6914 46.4492 16.082C46.4492 16.4727 46.3027 16.8145 46.0098 17.1074C45.7168 17.3809 45.375 17.5176 44.9844 17.5176C44.5938 17.5176 44.252 17.3809 43.959 17.1074C43.6855 16.8145 43.5488 16.4727 43.5488 16.082ZM54.1543 22.498C54.0957 23.0254 54.0566 23.5332 54.0371 24.0215C54.0371 24.4902 54.0371 24.8027 54.0371 24.959C54.3301 24.7051 54.6816 24.4316 55.0918 24.1387C55.5215 23.8457 55.9707 23.5723 56.4395 23.3184C56.8887 23.084 57.3477 22.8887 57.8164 22.7324C58.3047 22.5566 58.7539 22.4688 59.1641 22.4688C59.9453 22.4688 60.668 22.6641 61.332 23.0547C61.9961 23.4258 62.5723 23.9238 63.0605 24.5488C63.5293 25.1738 63.9004 25.8867 64.1738 26.6875C64.4473 27.4883 64.584 28.2988 64.584 29.1191C64.584 30.2129 64.3984 31.2578 64.0273 32.2539C63.6562 33.2305 63.1484 34.0898 62.5039 34.832C61.8398 35.5938 61.0488 36.1895 60.1309 36.6191C59.2324 37.0488 58.2461 37.2637 57.1719 37.2637C56.7812 37.2637 56.3027 37.2051 55.7363 37.0879C55.1699 36.9707 54.6035 36.707 54.0371 36.2969V40.9258C54.0371 41.3555 54.0664 41.7168 54.125 42.0098C54.1836 42.3027 54.3203 42.5371 54.5352 42.7129C54.7305 42.8887 55.0137 43.0156 55.3848 43.0938C55.7754 43.1719 56.293 43.2109 56.9375 43.2109V43.9434C56.5859 43.9043 56.0684 43.875 55.3848 43.8555C54.7207 43.8555 54.0176 43.8555 53.2754 43.8555C52.5527 43.8555 51.8594 43.8555 51.1953 43.8555C50.5312 43.875 50.043 43.9043 49.7305 43.9434V43.2109C50.7656 43.2109 51.4395 43.0645 51.752 42.7715C52.084 42.4785 52.25 41.8828 52.25 40.9844V26.8926C52.25 26.3652 52.2305 25.9453 52.1914 25.6328C52.1523 25.3203 52.0742 25.0762 51.957 24.9004C51.8398 24.7246 51.6641 24.6074 51.4297 24.5488C51.1953 24.4902 50.873 24.4609 50.4629 24.4609V23.8457C51.0879 23.748 51.6543 23.6016 52.1621 23.4062C52.6895 23.2109 53.1777 22.9082 53.627 22.498H54.1543ZM54.0371 34.0117C54.1348 34.207 54.2715 34.4414 54.4473 34.7148C54.6426 34.9688 54.8867 35.2227 55.1797 35.4766C55.4727 35.7109 55.8242 35.916 56.2344 36.0918C56.6641 36.248 57.1719 36.3262 57.7578 36.3262C58.5977 36.3262 59.3301 36.1406 59.9551 35.7695C60.5996 35.3789 61.127 34.8906 61.5371 34.3047C61.9668 33.6992 62.2793 33.0352 62.4746 32.3125C62.6895 31.5898 62.7969 30.877 62.7969 30.1738C62.7969 29.334 62.6992 28.543 62.5039 27.8008C62.3281 27.0391 62.0547 26.3652 61.6836 25.7793C61.3125 25.2129 60.834 24.7637 60.248 24.4316C59.6621 24.0996 58.9785 23.9336 58.1973 23.9336C57.8848 23.9336 57.5234 24.0117 57.1133 24.168C56.7227 24.3047 56.332 24.4707 55.9414 24.666C55.5508 24.8809 55.1797 25.1055 54.8281 25.3398C54.4961 25.5547 54.2324 25.75 54.0371 25.9258V34.0117ZM71 22.498C70.9414 23.0254 70.9023 23.5332 70.8828 24.0215C70.8828 24.4902 70.8828 24.8027 70.8828 24.959C71.1758 24.7051 71.5273 24.4316 71.9375 24.1387C72.3672 23.8457 72.8164 23.5723 73.2852 23.3184C73.7344 23.084 74.1934 22.8887 74.6621 22.7324C75.1504 22.5566 75.5996 22.4688 76.0098 22.4688C76.791 22.4688 77.5137 22.6641 78.1777 23.0547C78.8418 23.4258 79.418 23.9238 79.9062 24.5488C80.375 25.1738 80.7461 25.8867 81.0195 26.6875C81.293 27.4883 81.4297 28.2988 81.4297 29.1191C81.4297 30.2129 81.2441 31.2578 80.873 32.2539C80.502 33.2305 79.9941 34.0898 79.3496 34.832C78.6855 35.5938 77.8945 36.1895 76.9766 36.6191C76.0781 37.0488 75.0918 37.2637 74.0176 37.2637C73.627 37.2637 73.1484 37.2051 72.582 37.0879C72.0156 36.9707 71.4492 36.707 70.8828 36.2969V40.9258C70.8828 41.3555 70.9121 41.7168 70.9707 42.0098C71.0293 42.3027 71.166 42.5371 71.3809 42.7129C71.5762 42.8887 71.8594 43.0156 72.2305 43.0938C72.6211 43.1719 73.1387 43.2109 73.7832 43.2109V43.9434C73.4316 43.9043 72.9141 43.875 72.2305 43.8555C71.5664 43.8555 70.8633 43.8555 70.1211 43.8555C69.3984 43.8555 68.7051 43.8555 68.041 43.8555C67.377 43.875 66.8887 43.9043 66.5762 43.9434V43.2109C67.6113 43.2109 68.2852 43.0645 68.5977 42.7715C68.9297 42.4785 69.0957 41.8828 69.0957 40.9844V26.8926C69.0957 26.3652 69.0762 25.9453 69.0371 25.6328C68.998 25.3203 68.9199 25.0762 68.8027 24.9004C68.6855 24.7246 68.5098 24.6074 68.2754 24.5488C68.041 24.4902 67.7188 24.4609 67.3086 24.4609V23.8457C67.9336 23.748 68.5 23.6016 69.0078 23.4062C69.5352 23.2109 70.0234 22.9082 70.4727 22.498H71ZM70.8828 34.0117C70.9805 34.207 71.1172 34.4414 71.293 34.7148C71.4883 34.9688 71.7324 35.2227 72.0254 35.4766C72.3184 35.7109 72.6699 35.916 73.0801 36.0918C73.5098 36.248 74.0176 36.3262 74.6035 36.3262C75.4434 36.3262 76.1758 36.1406 76.8008 35.7695C77.4453 35.3789 77.9727 34.8906 78.3828 34.3047C78.8125 33.6992 79.125 33.0352 79.3203 32.3125C79.5352 31.5898 79.6426 30.877 79.6426 30.1738C79.6426 29.334 79.5449 28.543 79.3496 27.8008C79.1738 27.0391 78.9004 26.3652 78.5293 25.7793C78.1582 25.2129 77.6797 24.7637 77.0938 24.4316C76.5078 24.0996 75.8242 23.9336 75.043 23.9336C74.7305 23.9336 74.3691 24.0117 73.959 24.168C73.5684 24.3047 73.1777 24.4707 72.7871 24.666C72.3965 24.8809 72.0254 25.1055 71.6738 25.3398C71.3418 25.5547 71.0781 25.75 70.8828 25.9258V34.0117ZM98.2754 29.793C98.2754 30.8281 98.0898 31.8047 97.7188 32.7227C97.3477 33.6211 96.8496 34.4023 96.2246 35.0664C95.5996 35.75 94.8672 36.2871 94.0273 36.6777C93.207 37.0684 92.3281 37.2637 91.3906 37.2637C90.4141 37.2637 89.4863 37.0977 88.6074 36.7656C87.7285 36.4336 86.957 35.9453 86.293 35.3008C85.6289 34.6758 85.1016 33.9141 84.7109 33.0156C84.3203 32.0977 84.125 31.0723 84.125 29.9395C84.125 28.9238 84.291 27.9668 84.623 27.0684C84.9746 26.1504 85.4531 25.3496 86.0586 24.666C86.6836 24.002 87.416 23.4746 88.2559 23.084C89.0957 22.6738 90.0137 22.4688 91.0098 22.4688C92.0254 22.4688 92.9727 22.6445 93.8516 22.9961C94.75 23.3281 95.5215 23.8164 96.166 24.4609C96.8105 25.0859 97.3184 25.8574 97.6895 26.7754C98.0801 27.6738 98.2754 28.6797 98.2754 29.793ZM96.1074 30.1152C96.1074 29.3926 96.0195 28.6309 95.8438 27.8301C95.668 27.0098 95.3848 26.2676 94.9941 25.6035C94.584 24.9199 94.0566 24.3633 93.4121 23.9336C92.7871 23.4844 92.0156 23.2598 91.0977 23.2598C90.2188 23.2598 89.4668 23.4551 88.8418 23.8457C88.2363 24.2363 87.748 24.7344 87.377 25.3398C87.0059 25.9648 86.7324 26.6582 86.5566 27.4199C86.4004 28.1621 86.3223 28.8945 86.3223 29.6172C86.3223 30.3008 86.4102 31.043 86.5859 31.8438C86.7617 32.625 87.0449 33.3574 87.4355 34.041C87.8262 34.7246 88.334 35.3008 88.959 35.7695C89.6035 36.2188 90.3945 36.4434 91.332 36.4434C92.2109 36.4434 92.9531 36.248 93.5586 35.8574C94.1641 35.4668 94.6523 34.959 95.0234 34.334C95.4141 33.7285 95.6875 33.0547 95.8438 32.3125C96.0195 31.5508 96.1074 30.8184 96.1074 30.1152Z" fill="black"/>
<path d="M121.479 21.5059H120.951C120.658 19.748 119.994 18.4492 118.959 17.6094C117.943 16.75 116.469 16.3203 114.535 16.3203C113.168 16.3203 111.898 16.5742 110.727 17.082C109.574 17.5703 108.578 18.2637 107.738 19.1621C106.898 20.0605 106.244 21.125 105.775 22.3555C105.307 23.5859 105.072 24.9434 105.072 26.4277C105.072 28.0684 105.326 29.5625 105.834 30.9102C106.361 32.2383 107.074 33.3809 107.973 34.3379C108.871 35.2949 109.926 36.0371 111.137 36.5645C112.348 37.0723 113.646 37.3262 115.033 37.3262C116.791 37.3262 118.129 36.8184 119.047 35.8027C119.965 34.7676 120.57 33.4883 120.863 31.9648H121.537L120.775 36.7988C120.502 36.9746 120.102 37.1504 119.574 37.3262C119.066 37.502 118.51 37.6582 117.904 37.7949C117.279 37.9316 116.654 38.0391 116.029 38.1172C115.424 38.2148 114.887 38.2637 114.418 38.2637C112.719 38.2637 111.166 37.9902 109.76 37.4434C108.373 36.8965 107.172 36.1055 106.156 35.0703C105.141 34.0547 104.35 32.8242 103.783 31.3789C103.236 29.9336 102.963 28.3125 102.963 26.5156C102.963 24.8945 103.275 23.4102 103.9 22.0625C104.545 20.6953 105.404 19.5137 106.479 18.5176C107.533 17.541 108.744 16.7793 110.111 16.2324C111.479 15.6855 112.885 15.4121 114.33 15.4121C115.502 15.4121 116.664 15.5586 117.816 15.8516C118.988 16.1445 120.111 16.5059 121.186 16.9355L121.479 21.5059ZM132.406 30.6172C130.258 31.2617 128.646 31.8672 127.572 32.4336C126.518 32.9805 125.99 33.6836 125.99 34.543C125.99 35.4414 126.215 36.0566 126.664 36.3887C127.133 36.7012 127.777 36.8574 128.598 36.8574C129.32 36.8574 130.014 36.6621 130.678 36.2715C131.342 35.8809 131.918 35.4219 132.406 34.8945V30.6172ZM136.83 36.6523C136.4 37.0625 135.941 37.4336 135.453 37.7656C134.984 38.0977 134.506 38.2637 134.018 38.2637C133.549 38.2637 133.168 38.0488 132.875 37.6191C132.602 37.1895 132.445 36.5645 132.406 35.7441C131.684 36.5059 130.883 37.1211 130.004 37.5898C129.125 38.0391 128.207 38.2637 127.25 38.2637C126.371 38.2637 125.629 37.9805 125.023 37.4141C124.418 36.8281 124.135 36.0957 124.174 35.2168C124.193 34.4941 124.408 33.8789 124.818 33.3711C125.248 32.8438 125.834 32.3848 126.576 31.9941C127.299 31.6035 128.158 31.2422 129.154 30.9102C130.15 30.5781 131.234 30.2266 132.406 29.8555V27.834C132.406 26.9746 132.201 26.2715 131.791 25.7246C131.4 25.1582 130.629 24.875 129.477 24.875C128.656 24.875 127.924 25.1191 127.279 25.6074C126.654 26.0762 126.332 26.6523 126.312 27.3359C126.312 27.8047 126.215 28.1465 126.02 28.3613C125.844 28.5762 125.619 28.6836 125.346 28.6836C125.111 28.6836 124.926 28.5859 124.789 28.3906C124.672 28.1953 124.613 27.9414 124.613 27.6289C124.613 27.1016 124.857 26.5938 125.346 26.1055C125.854 25.6172 126.664 25.0801 127.777 24.4941C128.422 24.1426 128.949 23.8887 129.359 23.7324C129.789 23.5762 130.238 23.498 130.707 23.498C131.645 23.498 132.455 23.7812 133.139 24.3477C133.842 24.9141 134.193 25.7344 134.193 26.8086V34.8066C134.193 35.9004 134.428 36.5254 134.896 36.6816C135.385 36.8379 136 36.6621 136.742 36.1543L136.83 36.6523ZM142.807 23.498C142.748 24.0254 142.709 24.5527 142.689 25.0801C142.689 25.6074 142.689 25.9883 142.689 26.2227C143.1 25.9297 143.529 25.6172 143.979 25.2852C144.447 24.9531 144.916 24.6602 145.385 24.4062C145.873 24.1328 146.361 23.9082 146.85 23.7324C147.338 23.5566 147.826 23.4688 148.314 23.4688C149.018 23.4688 149.643 23.6738 150.189 24.084C150.756 24.4746 151.176 25.168 151.449 26.1641C152.27 25.5195 153.158 24.9141 154.115 24.3477C155.072 23.7617 156.039 23.4688 157.016 23.4688C157.602 23.4688 158.1 23.5957 158.51 23.8496C158.939 24.084 159.291 24.4062 159.564 24.8164C159.838 25.2266 160.043 25.7051 160.18 26.252C160.316 26.7793 160.385 27.3262 160.385 27.8926V34.8652C160.385 35.6855 160.512 36.252 160.766 36.5645C161.039 36.877 161.586 37.0332 162.406 37.0332V37.7656C161.605 37.7461 160.639 37.7363 159.506 37.7363C158.393 37.7168 157.406 37.7266 156.547 37.7656V37.0332C157.387 37.0332 157.934 36.877 158.188 36.5645C158.461 36.252 158.598 35.6855 158.598 34.8652V28.9766C158.598 28.4492 158.568 27.9512 158.51 27.4824C158.451 26.9941 158.324 26.5742 158.129 26.2227C157.934 25.8711 157.641 25.5879 157.25 25.373C156.879 25.1582 156.361 25.0508 155.697 25.0508C155.326 25.0508 154.936 25.1289 154.525 25.2852C154.135 25.4219 153.744 25.5977 153.354 25.8125C152.982 26.0078 152.631 26.2227 152.299 26.457C151.986 26.6914 151.732 26.8867 151.537 27.043V34.8652C151.537 35.6855 151.674 36.252 151.947 36.5645C152.24 36.877 152.816 37.0332 153.676 37.0332V37.7656C153.246 37.7656 152.768 37.7656 152.24 37.7656C151.732 37.7461 151.215 37.7363 150.688 37.7363C150.141 37.7363 149.604 37.7363 149.076 37.7363C148.568 37.7363 148.109 37.7461 147.699 37.7656V37.0332C148.52 37.0332 149.057 36.877 149.311 36.5645C149.584 36.252 149.721 35.6855 149.721 34.8652V28.9766C149.721 28.4492 149.691 27.9512 149.633 27.4824C149.594 26.9941 149.477 26.5742 149.281 26.2227C149.086 25.8711 148.803 25.5879 148.432 25.373C148.061 25.1582 147.543 25.0508 146.879 25.0508C146.586 25.0508 146.254 25.1191 145.883 25.2559C145.531 25.373 145.16 25.5293 144.77 25.7246C144.379 25.9395 143.998 26.1738 143.627 26.4277C143.275 26.6621 142.963 26.9062 142.689 27.1602V34.8652C142.689 35.6855 142.816 36.252 143.07 36.5645C143.344 36.877 143.9 37.0332 144.74 37.0332V37.7656C143.9 37.7461 142.904 37.7363 141.752 37.7363C140.619 37.7168 139.613 37.7266 138.734 37.7656V37.0332C139.613 37.0332 140.189 36.877 140.463 36.5645C140.736 36.252 140.873 35.6855 140.873 34.8652V27.8926C140.873 27.3652 140.854 26.9453 140.814 26.6328C140.795 26.3203 140.727 26.0762 140.609 25.9004C140.492 25.7246 140.316 25.6074 140.082 25.5488C139.848 25.4902 139.525 25.4609 139.115 25.4609V24.8457C139.74 24.748 140.307 24.6016 140.814 24.4062C141.342 24.2109 141.82 23.9082 142.25 23.498H142.807ZM168.295 23.498C168.236 24.0254 168.197 24.5332 168.178 25.0215C168.178 25.4902 168.178 25.8027 168.178 25.959C168.471 25.7051 168.822 25.4316 169.232 25.1387C169.662 24.8457 170.111 24.5723 170.58 24.3184C171.029 24.084 171.488 23.8887 171.957 23.7324C172.445 23.5566 172.895 23.4688 173.305 23.4688C174.086 23.4688 174.809 23.6641 175.473 24.0547C176.137 24.4258 176.713 24.9238 177.201 25.5488C177.67 26.1738 178.041 26.8867 178.314 27.6875C178.588 28.4883 178.725 29.2988 178.725 30.1191C178.725 31.2129 178.539 32.2578 178.168 33.2539C177.797 34.2305 177.289 35.0898 176.645 35.832C175.98 36.5938 175.189 37.1895 174.271 37.6191C173.373 38.0488 172.387 38.2637 171.312 38.2637C170.922 38.2637 170.443 38.2051 169.877 38.0879C169.311 37.9707 168.744 37.707 168.178 37.2969V41.9258C168.178 42.3555 168.207 42.7168 168.266 43.0098C168.324 43.3027 168.461 43.5371 168.676 43.7129C168.871 43.8887 169.154 44.0156 169.525 44.0938C169.916 44.1719 170.434 44.2109 171.078 44.2109V44.9434C170.727 44.9043 170.209 44.875 169.525 44.8555C168.861 44.8555 168.158 44.8555 167.416 44.8555C166.693 44.8555 166 44.8555 165.336 44.8555C164.672 44.875 164.184 44.9043 163.871 44.9434V44.2109C164.906 44.2109 165.58 44.0645 165.893 43.7715C166.225 43.4785 166.391 42.8828 166.391 41.9844V27.8926C166.391 27.3652 166.371 26.9453 166.332 26.6328C166.293 26.3203 166.215 26.0762 166.098 25.9004C165.98 25.7246 165.805 25.6074 165.57 25.5488C165.336 25.4902 165.014 25.4609 164.604 25.4609V24.8457C165.229 24.748 165.795 24.6016 166.303 24.4062C166.83 24.2109 167.318 23.9082 167.768 23.498H168.295ZM168.178 35.0117C168.275 35.207 168.412 35.4414 168.588 35.7148C168.783 35.9688 169.027 36.2227 169.32 36.4766C169.613 36.7109 169.965 36.916 170.375 37.0918C170.805 37.248 171.312 37.3262 171.898 37.3262C172.738 37.3262 173.471 37.1406 174.096 36.7695C174.74 36.3789 175.268 35.8906 175.678 35.3047C176.107 34.6992 176.42 34.0352 176.615 33.3125C176.83 32.5898 176.938 31.877 176.938 31.1738C176.938 30.334 176.84 29.543 176.645 28.8008C176.469 28.0391 176.195 27.3652 175.824 26.7793C175.453 26.2129 174.975 25.7637 174.389 25.4316C173.803 25.0996 173.119 24.9336 172.338 24.9336C172.025 24.9336 171.664 25.0117 171.254 25.168C170.863 25.3047 170.473 25.4707 170.082 25.666C169.691 25.8809 169.32 26.1055 168.969 26.3398C168.637 26.5547 168.373 26.75 168.178 26.9258V35.0117ZM192.084 35.4219C191.146 36.1836 190.17 36.8477 189.154 37.4141C188.139 37.9805 187.143 38.2637 186.166 38.2637C185.795 38.2637 185.424 38.1953 185.053 38.0586C184.682 37.9414 184.34 37.7266 184.027 37.4141C183.734 37.1211 183.49 36.7402 183.295 36.2715C183.119 35.8027 183.031 35.2266 183.031 34.543V26.457C183.031 25.793 182.904 25.3535 182.65 25.1387C182.396 24.9043 181.898 24.7676 181.156 24.7285V24.1719C181.43 24.1719 181.703 24.1621 181.977 24.1426C182.25 24.123 182.543 24.1035 182.855 24.084C183.168 24.0645 183.49 24.0449 183.822 24.0254C184.154 23.9863 184.525 23.9473 184.936 23.9082C184.896 24.2988 184.867 24.748 184.848 25.2559C184.848 25.7637 184.848 26.1641 184.848 26.457V32.9609C184.848 34.4844 185.043 35.4902 185.434 35.9785C185.844 36.4668 186.488 36.7109 187.367 36.7109C188.109 36.7109 188.91 36.5156 189.77 36.125C190.648 35.7344 191.43 35.2168 192.113 34.5723V26.457C192.113 25.793 191.928 25.3535 191.557 25.1387C191.186 24.9043 190.639 24.7676 189.916 24.7285V24.1719C190.189 24.1719 190.482 24.1621 190.795 24.1426C191.107 24.123 191.43 24.1035 191.762 24.084C192.094 24.0645 192.445 24.0449 192.816 24.0254C193.188 23.9863 193.578 23.9473 193.988 23.9082C193.949 24.2988 193.92 24.748 193.9 25.2559C193.9 25.7637 193.9 26.1641 193.9 26.457V35.5684C193.9 36.1934 194.047 36.5742 194.34 36.7109C194.652 36.8281 195.189 36.8574 195.951 36.7988V37.3555C195.756 37.3945 195.512 37.4531 195.219 37.5312C194.945 37.5898 194.652 37.668 194.34 37.7656C194.008 37.8438 193.676 37.9219 193.344 38C193.031 38.0977 192.729 38.1855 192.436 38.2637C192.318 38.3027 192.23 38.3027 192.172 38.2637C192.113 38.2246 192.084 38.1465 192.084 38.0293V35.4219ZM198.969 33.5762C199.027 33.9863 199.115 34.416 199.232 34.8652C199.369 35.3145 199.564 35.7246 199.818 36.0957C200.072 36.4668 200.404 36.7695 200.814 37.0039C201.244 37.2383 201.791 37.3555 202.455 37.3555C203.568 37.3555 204.33 37.1211 204.74 36.6523C205.17 36.1641 205.385 35.627 205.385 35.041C205.385 34.5918 205.287 34.2109 205.092 33.8984C204.916 33.5664 204.682 33.2734 204.389 33.0195C204.096 32.7656 203.754 32.541 203.363 32.3457C202.973 32.1309 202.572 31.916 202.162 31.7012C201.166 31.1738 200.307 30.5781 199.584 29.9141C198.861 29.2305 198.5 28.3906 198.5 27.3945C198.5 26.8867 198.607 26.3984 198.822 25.9297C199.037 25.4609 199.34 25.041 199.73 24.6699C200.121 24.3184 200.59 24.0352 201.137 23.8203C201.703 23.5859 202.338 23.4688 203.041 23.4688C203.51 23.4688 204.027 23.5371 204.594 23.6738C205.18 23.791 205.736 23.9961 206.264 24.2891L206.498 27.5117H205.883C205.746 26.5156 205.434 25.7539 204.945 25.2266C204.457 24.6797 203.715 24.4062 202.719 24.4062C201.957 24.4062 201.293 24.6016 200.727 24.9922C200.16 25.3633 199.877 25.8711 199.877 26.5156C199.877 26.9844 199.984 27.3945 200.199 27.7461C200.414 28.0781 200.697 28.3809 201.049 28.6543C201.4 28.9082 201.801 29.1426 202.25 29.3574C202.699 29.5723 203.158 29.7773 203.627 29.9727C204.076 30.1875 204.516 30.4121 204.945 30.6465C205.375 30.8809 205.756 31.1641 206.088 31.4961C206.4 31.8086 206.654 32.1797 206.85 32.6094C207.064 33.0195 207.172 33.498 207.172 34.0449C207.172 34.5723 207.074 35.0898 206.879 35.5977C206.684 36.1055 206.381 36.5547 205.971 36.9453C205.561 37.3555 205.043 37.6777 204.418 37.9121C203.793 38.1465 203.061 38.2637 202.221 38.2637C201.635 38.2637 201.01 38.1758 200.346 38C199.682 37.8242 199.115 37.5898 198.646 37.2969L198.295 33.5762H198.969Z" fill="black"/>
<path d="M41.0283 23.383V2.74468C41.0283 -0.475279 41.2585 0.0286931 38.0283 0.0286931L2.75595 0.0286923C-0.474262 0.0286923 0.0283051 -0.191323 0.0283051 3.02864V58.0289L20.5283 44.4076L41.0283 58.0289V23.383Z" fill="black"/>
<path d="M27.9658 23.9041V17.2166C27.9658 16.5499 27.9137 16.0291 27.8096 15.6541C27.7054 15.2582 27.5387 14.9561 27.3096 14.7478C27.0804 14.5395 26.7575 14.4145 26.3408 14.3728C25.945 14.3103 25.4554 14.2686 24.8721 14.2478V13.4353C25.3096 13.4561 25.9137 13.477 26.6846 13.4978C27.4554 13.4978 28.2471 13.4978 29.0596 13.4978C29.8929 13.4978 30.6742 13.4978 31.4033 13.4978C32.1325 13.477 32.695 13.4561 33.0908 13.4353V14.2478C32.4867 14.2686 31.9867 14.3103 31.5908 14.3728C31.195 14.4353 30.8825 14.5707 30.6533 14.7791C30.4033 14.9874 30.2367 15.2895 30.1533 15.6853C30.07 16.0603 30.0283 16.5707 30.0283 17.2166V32.6228C30.0283 33.3311 30.07 33.9041 30.1533 34.3416C30.2367 34.7791 30.3929 35.1228 30.6221 35.3728C30.8512 35.6228 31.1637 35.7895 31.5596 35.8728C31.9554 35.9561 32.4658 35.9978 33.0908 35.9978V36.7791C32.695 36.7582 32.1221 36.7478 31.3721 36.7478C30.6429 36.727 29.8721 36.7166 29.0596 36.7166C28.2471 36.7166 27.4554 36.727 26.6846 36.7478C25.9137 36.7478 25.3096 36.7582 24.8721 36.7791V35.9978C25.5179 35.9978 26.0387 35.9457 26.4346 35.8416C26.8304 35.7374 27.1429 35.5603 27.3721 35.3103C27.6012 35.0603 27.7575 34.727 27.8408 34.3103C27.9242 33.8728 27.9658 33.3103 27.9658 32.6228V25.2166H13.1846V32.6228C13.1846 33.3103 13.2158 33.8728 13.2783 34.3103C13.3408 34.7478 13.4867 35.0916 13.7158 35.3416C13.9242 35.5916 14.2262 35.7686 14.6221 35.8728C15.0179 35.9561 15.5492 35.9978 16.2158 35.9978V36.7791C15.7992 36.7791 15.2158 36.7791 14.4658 36.7791C13.7367 36.7582 12.9658 36.7478 12.1533 36.7478C11.32 36.7478 10.5283 36.7478 9.77832 36.7478C9.02832 36.7478 8.44499 36.7582 8.02832 36.7791V35.9978C9.27832 35.9978 10.1012 35.7791 10.4971 35.3416C10.8929 34.8832 11.0908 33.977 11.0908 32.6228V17.3103C11.0908 16.6436 11.0387 16.1124 10.9346 15.7166C10.8512 15.3207 10.695 15.0186 10.4658 14.8103C10.2367 14.5811 9.92415 14.4353 9.52832 14.3728C9.13249 14.3103 8.63249 14.2686 8.02832 14.2478V13.4353C8.42415 13.477 8.98665 13.5082 9.71582 13.5291C10.4658 13.5291 11.2575 13.5291 12.0908 13.5291C12.9033 13.5291 13.6846 13.5291 14.4346 13.5291C15.2054 13.5082 15.7992 13.477 16.2158 13.4353V14.2478C15.6117 14.2686 15.1117 14.3207 14.7158 14.4041C14.32 14.4666 14.0075 14.602 13.7783 14.8103C13.5492 15.0395 13.3929 15.352 13.3096 15.7478C13.2262 16.1436 13.1846 16.6645 13.1846 17.3103V23.9041H27.9658Z" fill="white"/>
</svg>
